<?xml version="1.0" standalone="no"?>
<!DOCTYPE svg PUBLIC "-//W3C//DTD SVG 20010904//EN"
 "http://www.w3.org/TR/2001/REC-SVG-20010904/DTD/svg10.dtd">
<svg version="1.0" xmlns="http://www.w3.org/2000/svg"
 width="600.000000pt" height="400.000000pt" viewBox="0 0 600.000000 400.000000"
 preserveAspectRatio="xMidYMid meet">

<g transform="translate(0.000000,400.000000) scale(0.100000,-0.100000)"
fill="#000000" stroke="none">
<path d="M4324 3918 c-10 -82 -10 -84 19 -130 17 -27 35 -48 42 -48 10 0 75
221 75 253 0 4 -28 7 -63 7 l-63 0 -10 -82z"/>
<path d="M4609 3990 c35 -5 71 -12 80 -15 12 -5 13 -3 4 5 -6 7 -42 14 -80 16
l-68 3 64 -9z"/>
<path d="M4886 3989 c41 -12 68 -44 88 -106 14 -42 34 -69 111 -145 152 -151
335 -315 335 -300 0 9 -61 71 -125 127 -34 30 -19 24 40 -15 22 -14 74 -38
115 -52 41 -15 93 -33 115 -42 22 -8 74 -17 115 -21 122 -10 160 -16 160 -25
0 -4 -8 -6 -18 -3 -10 2 -24 -2 -31 -11 -16 -19 -5 -56 17 -57 12 0 10 -3 -6
-10 -13 -5 -23 -16 -21 -26 2 -30 -1 -39 -9 -25 -6 8 -10 -1 -11 -25 -5 -79
-6 -88 -16 -95 -5 -4 -22 -8 -37 -8 -16 0 -28 -4 -28 -10 0 -5 13 -10 28 -10
33 0 85 50 155 150 25 36 54 74 64 85 57 62 73 100 73 168 l0 67 -30 0 c-16 0
-30 -4 -30 -9 0 -6 -12 -16 -27 -23 -35 -16 -43 -48 -14 -48 12 0 21 -4 21
-10 0 -5 -7 -10 -15 -10 -9 0 -19 -8 -22 -17 -11 -30 -24 -33 -148 -27 -165 8
-277 43 -420 130 -178 108 -335 269 -335 345 0 9 -9 28 -21 43 -17 21 -28 26
-62 25 -41 -1 -41 -1 -11 -10z m1011 -555 c-3 -3 -12 -4 -19 -1 -8 3 -5 6 6 6
11 1 17 -2 13 -5z m-77 -124 c0 -5 -5 -10 -11 -10 -5 0 -7 5 -4 10 3 6 8 10
11 10 2 0 4 -4 4 -10z"/>
<path d="M5927 3986 c-7 -17 1 -26 23 -26 12 0 15 -10 14 -47 -2 -42 17 -103
31 -103 3 0 5 43 5 95 l0 95 -34 0 c-20 0 -36 -6 -39 -14z"/>
<path d="M4518 3983 c7 -3 16 -2 19 1 4 3 -2 6 -13 5 -11 0 -14 -3 -6 -6z"/>
<path d="M3312 3935 c-7 -14 -12 -34 -12 -43 1 -9 7 1 15 23 16 45 14 58 -3
20z"/>
<path d="M5911 3934 c0 -11 3 -14 6 -6 3 7 2 16 -1 19 -3 4 -6 -2 -5 -13z"/>
<path d="M3376 3892 c-4 -7 -146 -644 -146 -655 0 -3 14 -8 30 -12 17 -4 30
-10 30 -15 0 -4 10 -6 23 -4 13 3 9 -1 -11 -10 -21 -10 -50 -13 -85 -10 -51 4
-52 4 -22 -10 17 -9 38 -15 48 -16 11 0 21 -9 24 -20 3 -13 19 -23 42 -29 20
-5 162 -42 316 -81 154 -40 345 -90 425 -111 149 -40 186 -46 192 -29 2 6 23
4 55 -4 46 -12 53 -12 66 3 8 9 94 172 191 363 125 246 176 354 171 368 -4 12
-21 23 -43 29 -169 46 -735 182 -738 178 -3 -3 18 -10 45 -17 28 -7 51 -16 51
-22 0 -5 4 -7 9 -4 5 4 38 -1 73 -10 35 -9 78 -18 95 -21 38 -6 34 -23 -4 -23
-40 0 -23 -8 32 -15 28 -4 59 -13 70 -20 12 -7 30 -15 40 -18 18 -4 18 -5 -2
-6 -12 0 -25 4 -28 9 -3 6 -18 7 -33 4 -21 -4 -24 -3 -12 5 13 9 12 11 -5 12
-48 3 -76 7 -168 29 -63 14 -94 26 -85 31 10 7 10 11 0 21 -10 10 -14 8 -19
-10 -3 -15 -11 -21 -22 -18 -15 5 -128 32 -406 97 -71 17 -145 35 -162 39 -18
5 -35 5 -37 2z m946 -174 c-4 -4 -21 -3 -37 1 -30 9 -30 9 7 8 20 -1 34 -5 30
-9z m33 -18 c3 -6 -1 -7 -9 -4 -18 7 -21 14 -7 14 6 0 13 -4 16 -10z m-595
-160 c0 -5 -6 -10 -12 -11 -7 0 -3 -4 9 -9 20 -8 21 -13 13 -35 -8 -20 -6 -25
5 -25 9 0 20 11 25 24 8 23 12 24 47 14 21 -5 39 -11 41 -13 1 -1 -10 -16 -25
-32 -27 -28 -30 -29 -73 -18 -40 10 -45 14 -43 38 2 35 -23 36 -31 2 -4 -14
-11 -23 -16 -20 -11 7 -2 64 13 83 11 14 47 16 47 2z m209 -9 c12 -8 13 -14 3
-36 -7 -14 -12 -36 -12 -49 0 -31 -24 -50 -54 -42 -34 8 -41 35 -16 61 11 12
20 28 20 36 0 32 32 47 59 30z m83 -88 c41 -6 54 -24 35 -53 -23 -37 -84 -13
-70 28 8 21 -14 13 -30 -10 -19 -29 -26 -22 -20 20 5 29 9 33 27 27 11 -3 38
-9 58 -12z m-269 -20 c15 -3 30 -10 34 -16 4 -6 0 -8 -10 -4 -8 3 -32 9 -51
13 -20 3 -36 11 -36 16 0 6 8 7 18 3 9 -3 29 -9 45 -12z m157 -45 c10 -6 1 -7
-25 -3 -22 4 -44 11 -50 16 -12 12 53 0 75 -13z m75 -18 l20 -9 -20 0 c-11 0
-29 4 -40 9 l-20 9 20 0 c11 0 29 -4 40 -9z m365 -415 c-7 -9 -15 -13 -19 -10
-3 3 1 10 9 15 21 14 24 12 10 -5z m-20 -35 c0 -5 -5 -10 -11 -10 -5 0 -7 5
-4 10 3 6 8 10 11 10 2 0 4 -4 4 -10z"/>
<path d="M3820 3481 c0 -5 -3 -16 -6 -25 -3 -9 -2 -16 4 -16 13 0 23 38 11 46
-5 3 -9 1 -9 -5z"/>
<path d="M3903 3445 c-3 -9 -3 -18 0 -22 10 -9 37 5 36 19 0 10 -2 10 -6 1 -2
-7 -9 -13 -15 -13 -6 0 -8 7 -4 15 3 8 3 15 0 15 -2 0 -7 -7 -11 -15z"/>
<path d="M4040 3396 c0 -2 7 -6 15 -10 8 -3 15 -1 15 4 0 6 -7 10 -15 10 -8 0
-15 -2 -15 -4z"/>
<path d="M3668 3893 c7 -3 16 -2 19 1 4 3 -2 6 -13 5 -11 0 -14 -3 -6 -6z"/>
<path d="M3715 3880 c11 -5 29 -8 40 -8 16 0 15 2 -5 8 -34 11 -60 11 -35 0z"/>
<path d="M3788 3863 c7 -3 16 -2 19 1 4 3 -2 6 -13 5 -11 0 -14 -3 -6 -6z"/>
<path d="M3828 3853 c7 -3 16 -2 19 1 4 3 -2 6 -13 5 -11 0 -14 -3 -6 -6z"/>
<path d="M3868 3843 c7 -3 16 -2 19 1 4 3 -2 6 -13 5 -11 0 -14 -3 -6 -6z"/>
<path d="M3908 3833 c7 -3 16 -2 19 1 4 3 -2 6 -13 5 -11 0 -14 -3 -6 -6z"/>
<path d="M3282 3800 c0 -14 2 -19 5 -12 2 6 2 18 0 25 -3 6 -5 1 -5 -13z"/>
<path d="M5941 3777 c-8 -11 -5 -17 14 -27 29 -16 52 -2 42 24 -8 20 -41 21
-56 3z"/>
<path d="M3271 3754 c0 -11 3 -14 6 -6 3 7 2 16 -1 19 -3 4 -6 -2 -5 -13z"/>
<path d="M3261 3704 c0 -11 3 -14 6 -6 3 7 2 16 -1 19 -3 4 -6 -2 -5 -13z"/>
<path d="M5955 3690 c-3 -5 3 -10 14 -10 12 0 21 5 21 10 0 6 -6 10 -14 10 -8
0 -18 -4 -21 -10z"/>
<path d="M3163 3668 c-17 -13 -78 -62 -135 -109 -56 -47 -116 -94 -133 -105
-61 -38 -115 -88 -106 -97 6 -6 61 31 143 96 176 141 341 293 231 215z"/>
<path d="M3252 3660 c0 -14 2 -19 5 -12 2 6 2 18 0 25 -3 6 -5 1 -5 -13z"/>
<path d="M2920 3619 c0 -5 5 -7 10 -4 6 3 10 8 10 11 0 2 -4 4 -10 4 -5 0 -10
-5 -10 -11z"/>
<path d="M3241 3604 c0 -11 3 -14 6 -6 3 7 2 16 -1 19 -3 4 -6 -2 -5 -13z"/>
<path d="M2980 3450 c-74 -70 -132 -131 -128 -135 4 -4 68 54 143 129 74 75
132 136 128 136 -5 -1 -69 -59 -143 -130z"/>
<path d="M3222 3510 c0 -14 2 -19 5 -12 2 6 2 18 0 25 -3 6 -5 1 -5 -13z"/>
<path d="M2580 3513 c0 -5 -30 -9 -66 -10 -36 -1 -161 -13 -278 -27 -116 -13
-245 -28 -286 -32 -71 -6 -137 -22 -99 -23 9 -1 23 -8 30 -18 13 -15 11 -16
-13 -9 -16 3 -28 2 -28 -3 0 -5 8 -11 19 -14 14 -3 19 -14 20 -43 0 -22 3 -57
5 -79 4 -38 3 -40 -25 -40 -35 0 -37 7 -6 28 12 8 19 18 15 22 -4 5 -49 -32
-100 -82 -51 -49 -148 -141 -215 -202 -68 -62 -123 -117 -123 -121 0 -4 35
-41 77 -81 42 -41 98 -94 123 -119 26 -25 87 -83 136 -129 49 -46 115 -109
147 -139 l58 -56 72 72 72 72 205 25 c113 14 253 32 313 41 96 15 107 19 107
37 0 11 -20 167 -45 346 -24 179 -47 352 -51 384 -8 85 -32 207 -33 175 -1
-16 -6 -28 -12 -28 -7 0 -8 11 -4 30 4 19 3 30 -4 30 -6 0 -11 -3 -11 -7z
m-690 -350 c0 -34 -3 -38 -25 -38 -30 0 -30 -1 -4 24 22 20 11 38 -18 27 -13
-5 -14 -4 -3 9 7 8 21 15 31 15 15 0 19 -7 19 -37z m583 -12 c-3 -13 2 -23 16
-31 12 -6 19 -16 15 -22 -4 -6 -1 -9 6 -6 8 2 16 10 18 18 3 7 0 10 -7 6 -14
-9 -14 0 -1 25 15 27 33 24 24 -3 -6 -20 -5 -21 10 -9 28 24 17 -2 -16 -36
-32 -33 -32 -33 -8 -31 16 2 25 -3 28 -14 3 -14 -4 -18 -27 -19 -17 -1 -35 -3
-41 -4 -5 -1 -14 -3 -20 -4 -5 0 -10 -8 -10 -16 0 -8 6 -14 13 -12 6 1 11 -3
10 -9 -1 -7 6 -10 17 -7 11 3 16 11 13 19 -3 8 -1 14 5 14 16 0 24 -33 10 -41
-6 -4 -15 -6 -19 -3 -4 2 -10 0 -14 -6 -3 -5 -22 -10 -41 -10 -38 0 -41 -4
-19 -26 8 -9 15 -11 15 -5 0 6 9 11 19 11 10 0 22 8 25 17 6 14 9 15 15 4 6
-8 19 -12 35 -9 28 6 44 -8 29 -23 -4 -4 -29 -11 -53 -14 -25 -3 -60 -8 -77
-11 -31 -6 -33 -4 -33 20 0 16 -4 25 -10 21 -5 -3 -10 -15 -10 -26 0 -11 -7
-19 -16 -19 -12 0 -15 6 -10 23 5 23 4 24 -42 20 -26 -3 -63 -8 -82 -12 l-35
-8 39 -8 c22 -4 46 -4 55 2 21 12 51 5 51 -13 0 -11 -12 -13 -52 -10 -71 5
-119 17 -113 27 3 4 1 10 -5 14 -5 3 -10 17 -10 30 0 28 -11 37 -30 24 -13 -7
-12 -9 3 -9 13 0 17 -8 17 -35 0 -40 -14 -45 -41 -14 -14 16 -16 26 -8 41 9
17 7 18 -17 12 -19 -5 -25 -4 -20 5 4 6 2 11 -4 11 -6 0 -8 5 -5 10 3 6 -3 10
-14 10 -41 0 -72 93 -35 107 22 8 49 -21 39 -44 -8 -17 -8 -17 -12 0 -5 20
-23 23 -23 4 0 -24 26 -51 44 -44 9 4 16 10 15 14 -5 30 3 43 26 43 14 0 25 6
26 13 0 9 2 9 6 -1 2 -6 10 -9 15 -6 6 4 17 -1 24 -11 8 -10 17 -15 21 -11 5
4 0 13 -10 20 -18 14 -25 42 -7 31 6 -3 10 3 10 14 0 12 5 21 10 21 6 0 10 -7
10 -15 0 -8 6 -15 14 -15 8 0 16 7 20 15 6 17 26 21 26 5 0 -6 -13 -18 -29
-28 -22 -13 -27 -22 -20 -32 7 -13 9 -12 9 1 0 16 19 29 41 29 5 0 9 -10 10
-22 0 -15 2 -18 6 -8 6 16 38 50 48 50 3 0 5 -14 5 -32 0 -43 10 -30 12 16 2
44 18 49 18 4 0 -29 1 -30 18 -15 10 10 22 14 25 10 4 -3 7 1 7 10 0 10 6 14
14 11 8 -3 16 3 19 16 3 12 10 19 15 16 6 -3 8 -15 5 -25z m-606 -45 c14 -1
28 -6 30 -13 3 -8 -8 -10 -31 -9 -20 2 -33 -1 -30 -5 3 -5 -9 -7 -26 -5 -22 2
-30 0 -26 -9 7 -19 -27 -48 -41 -34 -8 8 -11 2 -10 -22 2 -24 -2 -34 -13 -34
-8 0 -23 -8 -32 -18 -9 -11 -22 -16 -27 -12 -7 3 -8 0 -5 -9 4 -10 -1 -19 -12
-23 -11 -4 -26 -16 -36 -27 -16 -20 -16 -20 -37 -2 -24 22 -13 46 20 46 11 0
19 5 19 10 0 6 6 10 14 10 16 0 30 27 27 50 -2 11 0 12 9 4 9 -9 20 -3 46 23
19 19 32 38 29 43 -3 6 0 7 8 4 8 -3 27 8 43 25 21 23 31 27 41 19 8 -6 26
-11 40 -12z m33 -53 c0 -13 -9 -18 -30 -19 -29 -1 -30 0 -14 17 21 24 44 24
44 2z m0 -48 c11 -13 8 -15 -19 -15 -33 0 -42 16 -13 23 9 3 18 5 18 6 1 0 7
-6 14 -14z m-116 -34 c16 -17 16 -20 0 -35 -9 -10 -23 -15 -31 -12 -9 4 -13 1
-11 -6 7 -20 -27 -49 -48 -42 -15 6 -17 4 -7 -6 9 -10 6 -18 -13 -39 l-24 -26
-22 23 c-23 23 -23 23 -4 37 16 12 22 12 35 2 8 -6 12 -7 8 -1 -3 6 16 32 44
58 27 26 47 51 44 56 -11 18 11 11 29 -9z m124 -19 c2 -7 -2 -12 -9 -11 -18 3
-49 -11 -49 -22 0 -5 14 -6 30 -2 17 3 30 2 30 -3 0 -9 -63 -35 -91 -37 -11
-1 -15 -7 -11 -17 5 -13 4 -13 -13 0 -17 14 -17 13 -10 -9 5 -18 4 -22 -5 -16
-9 5 -11 4 -6 -3 7 -11 -50 -71 -67 -72 -10 0 -37 26 -37 35 0 4 7 5 15 1 14
-5 20 6 16 27 -1 5 4 7 11 5 6 -2 29 13 50 35 32 33 41 37 53 27 11 -9 15 -9
15 -1 0 7 5 9 10 6 16 -10 12 7 -7 28 -15 17 -15 19 -2 15 9 -4 20 2 28 14 13
21 42 21 49 0z m-78 -42 c0 -5 -4 -10 -10 -10 -5 0 -10 5 -10 10 0 6 5 10 10
10 6 0 10 -4 10 -10z m90 -50 c0 -5 -6 -10 -14 -10 -8 0 -23 -3 -33 -6 -16 -5
-16 -4 1 10 22 18 46 21 46 6z m-3 -47 c2 -6 -8 -10 -22 -10 -26 0 -34 12 -12
20 16 7 30 3 34 -10z m8 -43 c3 -5 0 -10 -9 -10 -8 0 -23 -3 -33 -7 -16 -6
-16 -5 -4 10 15 19 37 22 46 7z m5 -50 c0 -5 -6 -10 -14 -10 -8 0 -23 -3 -33
-7 -16 -6 -16 -5 -4 10 15 18 51 23 51 7z m425 -30 c8 -12 -4 -70 -13 -70 -9
0 -32 49 -32 67 0 15 36 18 45 3z m-428 -17 c2 -6 -8 -10 -22 -10 -26 0 -34
12 -12 20 16 7 30 3 34 -10z m-85 -25 c-7 -7 -12 -8 -12 -2 0 14 12 26 19 19
2 -3 -1 -11 -7 -17z m98 -29 c0 -5 -15 -9 -32 -9 -31 1 -32 2 -15 15 19 14 47
10 47 -6z m0 -43 c0 -8 -10 -13 -25 -13 -41 0 -28 19 18 26 4 0 7 -5 7 -13z
m4 -45 c3 -4 3 -10 0 -13 -7 -8 -54 3 -54 13 0 12 47 12 54 0z m76 -115 c0 -2
-8 -10 -17 -17 -16 -13 -17 -12 -4 4 13 16 21 21 21 13z"/>
<path d="M2432 3100 c0 -14 2 -19 5 -12 2 6 2 18 0 25 -3 6 -5 1 -5 -13z"/>
<path d="M2321 3071 c-1 -7 -7 -11 -16 -7 -8 3 -15 0 -15 -6 0 -7 -4 -7 -14 1
-10 9 -16 9 -21 1 -4 -6 -12 -9 -18 -7 -7 2 -22 0 -34 -4 -17 -6 -25 -4 -32 9
-6 9 -11 12 -11 5 0 -6 -3 -19 -7 -29 -4 -11 -3 -15 4 -11 6 4 18 1 26 -8 13
-12 16 -12 21 0 3 8 26 17 54 21 58 7 76 17 69 35 -5 12 -6 12 -6 0z"/>
<path d="M2397 3073 c-14 -13 -6 -23 18 -23 14 0 25 5 25 11 0 5 -4 7 -10 4
-5 -3 -10 -1 -10 4 0 12 -13 14 -23 4z"/>
<path d="M2350 3060 c0 -5 7 -10 16 -10 8 0 12 5 9 10 -3 6 -10 10 -16 10 -5
0 -9 -4 -9 -10z"/>
<path d="M2110 3031 c-8 -6 -18 -7 -22 -5 -14 9 -8 -13 7 -26 12 -10 15 -10
15 0 0 7 8 19 18 26 19 15 5 19 -18 5z"/>
<path d="M2416 3013 c-4 -4 -22 -6 -40 -5 -35 3 -57 -20 -34 -34 7 -4 14 -2
16 4 6 18 22 14 23 -5 0 -15 2 -15 9 2 5 12 9 14 9 6 1 -11 6 -10 21 4 21 19
26 35 12 35 -5 0 -12 -3 -16 -7z"/>
<path d="M2228 2993 c-10 -2 -18 -11 -18 -20 0 -10 -6 -13 -16 -9 -12 5 -15 2
-10 -10 3 -8 6 -18 6 -20 0 -12 18 -1 22 14 6 21 45 26 68 10 12 -10 13 -10 3
2 -9 10 -10 17 -2 27 9 10 6 13 -12 12 -13 -1 -32 -3 -41 -6z"/>
<path d="M2305 2990 c3 -5 8 -10 11 -10 2 0 4 5 4 10 0 6 -5 10 -11 10 -5 0
-7 -4 -4 -10z"/>
<path d="M1575 2900 c3 -5 10 -10 16 -10 5 0 9 5 9 10 0 6 -7 10 -16 10 -8 0
-12 -4 -9 -10z"/>
<path d="M2815 3473 c-11 -15 -39 -52 -62 -82 -48 -63 -57 -91 -15 -46 36 39
115 155 105 155 -4 0 -17 -13 -28 -27z"/>
<path d="M3212 3460 c0 -14 2 -19 5 -12 2 6 2 18 0 25 -3 6 -5 1 -5 -13z"/>
<path d="M3201 3414 c0 -11 3 -14 6 -6 3 7 2 16 -1 19 -3 4 -6 -2 -5 -13z"/>
<path d="M2985 3383 c-4 -13 -11 -20 -16 -17 -5 3 -9 -15 -9 -40 0 -25 -11
-75 -25 -112 -27 -71 -31 -88 -15 -64 18 28 82 230 77 243 -4 7 -8 3 -12 -10z"/>
<path d="M1846 3351 c-4 -5 -2 -12 3 -15 5 -4 12 -2 15 3 4 5 2 12 -3 15 -5 4
-12 2 -15 -3z"/>
<path d="M2672 3308 c-12 -12 -17 -58 -6 -58 12 0 33 34 34 53 0 20 -11 22
-28 5z"/>
<path d="M1845 3300 c3 -5 10 -10 16 -10 5 0 9 5 9 10 0 6 -7 10 -16 10 -8 0
-12 -4 -9 -10z"/>
<path d="M2999 3235 c-18 -30 -37 -55 -42 -55 -4 0 -5 -5 -2 -10 8 -13 34 19
64 78 30 59 20 52 -20 -13z"/>
<path d="M5638 3136 c-3 -16 -1 -23 5 -19 6 3 16 -2 22 -11 11 -14 13 -15 19
-1 3 9 0 15 -8 15 -8 0 -13 7 -12 16 2 27 -21 27 -26 0z"/>
<path d="M5925 3032 c-38 -58 -83 -126 -100 -151 -22 -35 -31 -41 -33 -28 -2
10 6 27 19 38 12 10 19 22 15 26 -4 4 -10 3 -14 -3 -4 -6 -18 -18 -32 -27 -13
-9 -19 -17 -12 -17 25 0 11 -19 -23 -30 -19 -6 -35 -15 -35 -20 0 -5 -9 -12
-20 -15 -13 -4 -20 -15 -20 -30 0 -25 -23 -43 -62 -50 -33 -7 -52 -45 -24 -45
8 0 18 -5 22 -11 10 -16 -18 -30 -33 -17 -15 12 -38 -11 -49 -48 -4 -16 -11
-20 -30 -16 -19 3 -23 1 -18 -12 4 -11 1 -16 -10 -16 -26 0 -31 4 -28 19 3 13
1 13 -12 2 -20 -17 -21 -31 -1 -31 8 0 15 -6 15 -14 0 -19 -23 -33 -28 -18 -8
24 -28 10 -66 -45 -22 -31 -59 -78 -83 -105 -24 -27 -43 -55 -43 -63 0 -8 -4
-15 -9 -15 -5 0 -31 -30 -57 -67 -26 -38 -82 -102 -123 -144 -42 -42 -105
-116 -141 -164 -36 -48 -75 -99 -87 -113 -13 -15 -23 -30 -23 -34 0 -5 -10 -8
-22 -8 -17 0 -19 -3 -9 -9 17 -11 4 -34 -15 -27 -8 3 -11 0 -8 -9 3 -7 -16
-41 -43 -74 l-48 -61 -11 26 c-11 25 -11 26 -17 5 -3 -11 -13 -21 -22 -21 -9
0 -13 4 -10 10 3 5 3 26 -1 45 l-6 36 -23 -21 c-14 -13 -31 -20 -42 -16 -12 3
-24 -3 -37 -21 -19 -26 -19 -26 0 -19 17 6 16 4 -4 -16 -19 -19 -25 -21 -42
-10 -17 10 -20 10 -20 -6 0 -10 5 -23 12 -30 9 -9 6 -16 -12 -32 -13 -11 -27
-20 -33 -20 -5 0 -6 -11 -3 -25 5 -18 2 -25 -7 -25 -9 0 -13 -8 -10 -23 3 -14
-2 -29 -11 -36 -9 -8 -16 -21 -16 -30 0 -11 -3 -12 -8 -4 -10 15 -26 4 -30
-22 -5 -28 -31 -75 -41 -75 -5 0 -11 7 -15 15 -3 8 -1 15 4 15 6 0 10 5 10 10
0 15 -67 12 -73 -2 -3 -7 -6 4 -6 25 -1 20 -5 37 -9 37 -4 0 -14 20 -21 45
-10 33 -18 45 -32 45 -16 0 -17 3 -7 19 9 15 8 22 -6 37 -13 12 -17 29 -14 61
2 23 0 43 -4 43 -5 0 -7 15 -7 33 1 17 -6 57 -15 87 -11 34 -18 98 -20 170 -3
109 3 144 29 162 6 4 2 8 -7 8 -10 0 -18 -3 -18 -7 0 -5 -10 -13 -23 -19 -12
-6 -39 -21 -59 -33 l-38 -23 0 56 c0 37 4 56 12 56 6 0 3 6 -7 14 -17 13 -18
19 -6 97 15 96 5 135 -45 178 -57 50 -224 93 -224 58 0 -19 18 -33 53 -41 15
-3 27 -11 27 -17 0 -13 -33 -8 -101 14 -59 19 -77 10 -49 -26 12 -15 27 -27
33 -27 30 -1 67 -98 41 -107 -7 -2 -19 3 -28 12 -13 14 -16 14 -16 2 0 -8 14
-20 30 -26 35 -12 42 -36 8 -27 -13 3 -31 6 -40 6 -9 0 -29 11 -45 24 -26 22
-49 30 -80 27 -15 -1 -18 -28 -4 -33 11 -4 96 -138 105 -164 3 -11 33 -53 66
-94 33 -41 60 -78 60 -81 0 -13 -28 -29 -105 -58 -44 -16 -79 -34 -77 -40 1
-6 -4 -11 -11 -11 -9 0 -12 -10 -10 -32 l3 -33 -17 35 c-10 19 -18 36 -18 37
-1 2 -46 -6 -101 -17 -130 -27 -349 -36 -493 -21 -114 12 -137 20 -268 97 -17
10 -35 15 -39 12 -13 -13 51 -74 124 -118 39 -24 72 -50 72 -57 0 -7 -3 -13
-7 -13 -14 0 -99 35 -138 57 -71 40 -88 45 -112 34 -18 -8 -23 -19 -23 -45 0
-52 -31 -66 -65 -30 -14 15 -25 33 -25 40 0 8 -10 14 -21 14 -19 0 -20 2 -8
17 12 15 12 16 -3 10 -15 -5 -18 -1 -18 23 0 19 -7 33 -20 40 -11 6 -20 17
-20 25 0 22 -17 18 -23 -5 -3 -12 -14 -20 -27 -20 -11 0 -19 4 -16 9 3 4 -3
16 -14 26 -21 19 -28 7 -8 -13 23 -23 -8 -12 -34 13 -33 30 -38 31 -38 5 0
-11 5 -20 11 -20 5 0 7 -5 4 -10 -3 -6 -2 -10 3 -10 5 0 8 -13 7 -30 -1 -17 3
-30 10 -30 6 0 12 -13 13 -30 3 -70 5 -80 11 -80 3 0 6 -17 6 -38 0 -20 4 -45
10 -55 7 -13 6 -20 -5 -27 -13 -8 -13 -11 -1 -19 7 -5 10 -14 7 -20 -4 -6 -3
-11 2 -11 6 0 9 -11 8 -23 -1 -22 -4 -23 -36 -16 -19 5 -53 8 -75 7 l-40 -1
45 -7 c25 -4 56 -12 70 -18 l25 -11 -30 -1 c-23 0 -27 -3 -15 -10 11 -7 4 -10
-27 -10 -24 0 -43 -4 -43 -10 0 -5 8 -7 18 -4 14 5 14 3 -2 -10 -11 -9 -23
-16 -28 -16 -4 0 -8 -6 -8 -12 0 -7 -6 -25 -14 -40 -8 -14 -17 -45 -21 -67 -6
-36 -10 -41 -34 -41 -21 0 -27 -5 -27 -22 0 -13 4 -26 9 -29 12 -9 -21 -59
-39 -59 -8 0 -14 -5 -14 -10 0 -6 14 -4 34 4 19 8 37 12 40 9 6 -6 -32 -43
-43 -43 -10 0 -71 -60 -71 -69 0 -20 29 -17 53 5 27 25 47 31 47 14 0 -5 10
-11 23 -11 16 -1 17 -3 5 -6 -21 -5 -12 -33 10 -33 35 0 -3 -15 -50 -20 -31
-3 -53 -11 -56 -19 -3 -9 2 -11 17 -6 16 5 20 3 15 -9 -4 -10 2 -17 20 -22 14
-3 26 -9 26 -13 0 -11 -58 -71 -69 -71 -6 0 -11 -7 -11 -15 0 -8 -9 -19 -20
-25 -11 -6 -20 -17 -20 -25 0 -7 -5 -15 -12 -17 -20 -7 21 -57 43 -53 20 4 27
-11 8 -17 -5 -2 -7 -11 -4 -21 4 -9 11 -14 16 -11 5 3 9 -1 9 -9 0 -8 7 -20
15 -27 8 -7 15 -24 15 -39 l0 -26 -18 23 -17 23 -57 -18 c-49 -16 -55 -21 -47
-36 13 -23 -5 -23 -28 1 -42 43 -110 91 -138 97 -24 6 -28 5 -18 -5 6 -7 9
-20 6 -29 -4 -9 -3 -13 2 -9 12 11 47 -11 39 -24 -5 -7 -2 -9 9 -5 20 8 34
-12 17 -23 -11 -7 -11 -14 0 -39 7 -17 16 -31 21 -31 5 0 9 -6 9 -14 0 -9 -8
-12 -25 -8 -20 3 -25 0 -25 -17 0 -11 -4 -21 -10 -21 -5 0 -10 5 -10 10 0 6
-7 10 -15 10 -8 0 -15 -5 -15 -11 0 -5 5 -7 10 -4 6 3 13 -1 16 -10 4 -10 13
-13 25 -10 28 9 23 -10 -5 -23 -22 -10 -32 -4 -121 81 -54 51 -102 94 -107 96
-5 2 28 -36 75 -85 74 -76 83 -90 73 -106 -6 -10 -16 -16 -23 -14 -7 3 -10 -1
-6 -10 5 -13 9 -12 31 2 18 12 27 13 30 6 2 -7 9 -12 15 -12 7 0 21 -13 32
-28 12 -17 13 -22 4 -15 -9 7 -19 10 -22 6 -4 -3 -7 1 -7 11 0 9 -5 14 -10 11
-5 -3 -10 -1 -10 5 0 7 -8 9 -22 4 -25 -7 -39 -24 -32 -36 3 -4 -9 -2 -26 4
-23 8 -29 13 -20 22 8 8 13 7 20 -4 5 -8 12 -11 16 -8 3 4 -1 15 -11 24 -14
14 -21 15 -36 6 -29 -18 -66 -14 -82 9 -10 13 -17 17 -22 9 -5 -8 -11 -8 -22
2 -13 11 -13 13 3 18 16 6 15 7 -4 12 -12 4 -22 2 -22 -3 0 -5 -4 -9 -8 -9
-13 0 -11 33 2 49 9 11 7 13 -12 7 -16 -6 -22 -3 -22 8 0 9 -7 16 -16 16 -14
0 -14 -1 0 -16 9 -8 16 -23 16 -31 0 -12 -6 -10 -23 8 -13 13 -31 29 -41 34
-17 10 -24 28 -9 23 5 -2 7 -6 6 -10 -2 -5 4 -8 12 -8 8 0 14 5 12 12 -2 12
-19 23 -79 55 -15 8 -36 25 -47 39 -22 28 -36 31 -45 9 -7 -18 -33 -20 -39 -2
-3 9 -8 9 -17 1 -8 -8 -8 -14 -1 -18 5 -4 8 -13 4 -21 -3 -8 0 -15 6 -15 6 0
11 -5 11 -11 0 -17 -21 1 -31 27 -9 24 -36 30 -50 10 -4 -5 -12 -7 -19 -4 -8
2 -3 15 15 36 14 17 24 36 20 42 -3 5 0 10 8 10 8 0 17 9 20 20 4 16 0 20 -16
19 -12 0 -16 -3 -9 -6 6 -2 10 -9 7 -13 -3 -5 -14 -1 -24 9 -24 24 -36 61 -21
61 6 0 8 5 4 11 -4 8 -12 2 -21 -15 -8 -15 -18 -24 -24 -21 -5 4 -3 15 6 28
19 27 19 41 0 33 -9 -3 -15 0 -15 9 0 7 12 16 28 18 16 3 11 4 -13 3 -38 -1
-40 -3 -37 -30 2 -19 -1 -27 -10 -24 -7 3 -13 16 -13 31 0 14 -3 29 -8 33 -4
4 -7 16 -7 26 0 10 -4 18 -10 18 -5 0 -10 -7 -10 -16 0 -8 -5 -12 -10 -9 -6 4
-7 11 -4 17 5 8 1 9 -10 5 -10 -4 -23 -7 -29 -7 -7 0 -3 -8 8 -16 19 -15 19
-16 1 -12 -11 1 -21 8 -23 15 -5 13 51 73 68 73 6 0 8 7 5 16 -3 8 -1 20 4 27
6 7 21 25 35 40 30 34 31 40 6 32 -11 -3 -35 3 -56 15 -20 11 -48 21 -63 22
-15 1 -34 7 -42 13 -24 19 -47 24 -58 13 -7 -7 -20 -4 -42 12 -26 19 -34 20
-41 9 -7 -11 -9 -10 -9 4 0 9 6 17 13 17 17 1 52 29 44 36 -3 4 -13 -1 -22
-10 -18 -18 -51 -21 -60 -7 -3 6 -28 7 -55 4 -45 -5 -51 -3 -77 26 -27 29 -31
31 -62 20 -18 -6 -47 -9 -64 -6 -38 6 -72 -14 -64 -38 4 -8 2 -15 -3 -15 -6 0
-10 5 -10 11 0 6 -7 9 -15 5 -8 -3 -15 -1 -15 5 0 5 7 12 15 15 24 10 17 26
-7 20 -13 -3 -17 -3 -10 0 15 7 16 24 2 24 -6 0 -15 -11 -20 -25 -5 -14 -12
-25 -15 -25 -11 0 -46 42 -40 48 3 4 10 0 16 -8 8 -13 10 -13 19 0 16 24 11
40 -11 40 -15 0 -19 5 -15 15 9 24 -24 32 -40 10 -14 -19 -26 -15 -30 10 -1
10 6 15 22 15 13 0 24 5 24 10 0 6 -8 10 -17 10 -13 0 -14 3 -5 12 7 7 12 16
12 20 0 14 -27 9 -40 -7 -7 -8 -24 -14 -39 -14 -17 1 -20 3 -9 6 21 5 24 23 4
23 -8 0 -23 3 -33 6 -13 4 -15 3 -4 -4 9 -7 10 -12 2 -16 -8 -5 -11 -187 -11
-637 l0 -629 3000 0 3000 0 0 1485 c0 1478 0 1485 -20 1485 -11 0 -20 5 -20
10 0 6 9 10 20 10 12 0 20 7 20 16 0 12 -7 15 -25 12 -31 -6 -31 -5 1 49 14
24 24 50 22 57 -2 7 -34 -34 -73 -92z m25 -47 c0 -18 -48 -70 -56 -62 -9 9 38
76 54 77 1 0 2 -7 2 -15z m-194 -194 c-14 -16 -21 -17 -31 -8 -15 14 -1 27 29
27 18 0 18 -1 2 -19z m-186 -265 c0 -3 -4 -8 -10 -11 -5 -3 -10 -1 -10 4 0 6
5 11 10 11 6 0 10 -2 10 -4z m-30 -40 c0 -3 -4 -8 -10 -11 -5 -3 -10 -1 -10 4
0 6 5 11 10 11 6 0 10 -2 10 -4z m-1785 -76 c3 -6 -1 -7 -9 -4 -18 7 -21 14
-7 14 6 0 13 -4 16 -10z m-120 -50 c3 -6 -1 -7 -9 -4 -18 7 -21 14 -7 14 6 0
13 -4 16 -10z m158 -3 c3 -8 1 -20 -4 -28 -6 -10 -9 -7 -9 14 0 29 5 35 13 14z
m1641 -26 c-25 -24 -49 -54 -62 -77 -7 -11 -12 -14 -12 -6 0 17 56 99 72 105
22 7 23 -2 2 -22z m-64 -26 c0 -8 -4 -15 -10 -15 -5 0 -7 7 -4 15 4 8 8 15 10
15 2 0 4 -7 4 -15z m-87 -59 c4 -10 0 -12 -15 -8 -15 4 -17 7 -6 13 17 11 15
11 21 -5z m51 -7 c-3 -5 -10 -7 -15 -3 -5 3 -7 10 -3 15 3 5 10 7 15 3 5 -3 7
-10 3 -15z m-1564 -29 c0 -5 -4 -10 -10 -10 -5 0 -10 5 -10 10 0 6 5 10 10 10
6 0 10 -4 10 -10z m1540 -40 c-13 -24 -16 -25 -24 -4 -3 8 -2 12 3 9 5 -3 12
-1 16 5 11 19 16 10 5 -10z m-1666 -5 c38 -16 43 -24 25 -42 -20 -20 -69 11
-69 44 0 16 0 16 44 -2z m1566 -135 c0 -5 -5 -10 -11 -10 -5 0 -7 5 -4 10 3 6
8 10 11 10 2 0 4 -4 4 -10z m-37 -45 c-3 -9 -8 -14 -10 -11 -3 3 -2 9 2 15 9
16 15 13 8 -4z m-53 -75 c0 -5 -5 -10 -11 -10 -5 0 -7 5 -4 10 3 6 8 10 11 10
2 0 4 -4 4 -10z m-35 -10 c-3 -5 -11 -10 -16 -10 -6 0 -7 5 -4 10 3 6 11 10
16 10 6 0 7 -4 4 -10z m-32 -107 c-25 -37 -83 -98 -83 -86 0 6 12 22 26 37
l27 26 -32 0 c-18 0 -30 -4 -26 -9 7 -12 -22 -41 -41 -41 -8 0 -14 5 -14 10 0
6 7 10 15 10 8 0 19 9 25 20 6 11 17 20 25 20 8 0 15 5 15 11 0 7 10 9 24 7
15 -3 27 0 30 8 3 8 10 14 16 14 6 0 3 -12 -7 -27z m64 0 c5 3 9 -11 10 -31 0
-20 -2 -31 -4 -24 -3 6 -15 12 -27 12 -33 0 -37 9 -18 35 10 13 20 19 23 13 4
-6 11 -8 16 -5z m-2227 -133 c0 -5 -5 -10 -12 -10 -9 0 -9 -3 -1 -11 9 -9 8
-15 -2 -25 -7 -8 -16 -14 -19 -14 -8 0 -8 34 0 54 7 17 34 22 34 6z m-246 -11
c41 1 55 -4 79 -26 16 -16 35 -40 42 -54 16 -30 69 -46 92 -28 7 7 16 9 20 5
3 -3 1 -6 -5 -6 -7 0 -12 -4 -12 -10 0 -5 6 -8 13 -6 6 3 28 7 47 10 35 6 35
6 14 -12 -19 -16 -41 -18 -178 -17 -87 1 -159 -2 -162 -7 -3 -4 -14 -8 -26 -8
-11 0 -32 -9 -47 -19 -15 -11 -39 -23 -54 -26 -14 -4 -31 -13 -38 -21 -6 -8
-17 -14 -23 -14 -6 0 -28 -9 -49 -20 -20 -11 -39 -20 -42 -20 -13 0 27 60 52
79 70 54 79 63 56 52 -14 -7 -24 -8 -28 -1 -3 5 -1 10 5 10 6 0 8 5 5 10 -3 6
-1 10 4 10 6 0 11 7 11 15 0 12 6 11 34 -6 38 -22 64 -17 104 20 29 28 28 45
-3 65 -36 24 -32 40 8 31 17 -4 54 -7 81 -6z m2256 -24 c0 -5 -5 -3 -10 5 -5
8 -10 20 -10 25 0 6 5 3 10 -5 5 -8 10 -19 10 -25z m100 25 c0 -5 -4 -10 -10
-10 -5 0 -10 5 -10 10 0 6 5 10 10 10 6 0 10 -4 10 -10z m350 0 c0 -5 -5 -10
-11 -10 -5 0 -7 5 -4 10 3 6 8 10 11 10 2 0 4 -4 4 -10z m-445 -64 c-16 -24
-35 -35 -35 -19 0 10 43 54 48 49 2 -2 -4 -16 -13 -30z m-89 -13 c-13 -24 -15
-25 -16 -7 0 11 5 25 12 32 19 19 21 6 4 -25z m-1920 2 c-11 -8 -22 -12 -25
-9 -6 6 19 24 34 24 6 -1 1 -7 -9 -15z m182 -2 c16 -16 16 -16 0 -11 -9 4 -19
2 -21 -5 -3 -9 -8 -9 -18 1 -12 11 -12 14 1 22 20 13 19 13 38 -7z m2179 -29
c-3 -3 -12 -4 -19 -1 -8 3 -5 6 6 6 11 1 17 -2 13 -5z m-2247 -22 c0 -4 -12
-9 -27 -10 -22 -1 -24 0 -13 8 18 12 40 13 40 2z m593 -7 c-3 -9 -8 -14 -10
-11 -3 3 -2 9 2 15 9 16 15 13 8 -4z m-27 -72 c-11 -11 -17 4 -9 23 7 18 8 18
11 1 2 -10 1 -21 -2 -24z m-29 -55 c-3 -8 -6 -5 -6 6 -1 11 2 17 5 13 3 -3 4
-12 1 -19z m-1337 -26 c0 -5 -13 -7 -30 -4 -16 2 -30 6 -30 8 0 2 14 4 30 4
17 0 30 -4 30 -8z m505 -37 c39 -17 21 -18 -25 0 -19 7 -28 14 -20 14 8 0 29
-6 45 -14z m-560 -14 c3 -5 -8 -18 -25 -27 -16 -10 -30 -24 -30 -30 0 -7 -7
-14 -15 -18 -20 -7 -20 32 1 62 15 22 58 30 69 13z m1884 -14 c13 -6 29 -19
34 -28 13 -21 -23 -55 -108 -100 -33 -18 -72 -40 -87 -51 -14 -10 -28 -18 -31
-18 -6 0 1 140 9 177 3 16 13 23 37 26 68 8 123 6 146 -6z m293 -79 c-9 -9
-12 -7 -12 12 0 19 3 21 12 12 9 -9 9 -15 0 -24z m-4266 -36 c-17 -16 -18 -16
-5 5 7 12 15 20 18 17 3 -2 -3 -12 -13 -22z m3284 -97 c0 -5 -5 -3 -10 5 -5 8
-10 20 -10 25 0 6 5 3 10 -5 5 -8 10 -19 10 -25z m-2909 4 c9 -17 8 -25 -6
-38 -15 -15 -17 -15 -30 2 -8 11 -16 14 -19 8 -9 -14 -36 -2 -36 15 0 16 10
17 44 4 28 -10 48 6 25 21 -10 6 -10 9 -2 9 7 0 17 -10 24 -21z m3224 -10 c19
-13 35 -27 35 -31 0 -5 6 -8 13 -8 17 0 55 -62 68 -112 8 -33 8 -65 -3 -137
l-14 -95 -44 -10 c-24 -6 -46 -17 -48 -25 -3 -10 2 -12 21 -7 22 5 27 2 36
-26 6 -17 11 -47 11 -66 0 -33 -1 -34 -18 -19 -10 9 -33 20 -52 23 -28 6 -32
5 -27 -9 7 -18 -8 -24 -18 -7 -11 17 -23 11 -18 -9 4 -14 0 -19 -12 -17 -9 1
-20 7 -24 14 -4 7 -12 8 -21 2 -13 -8 -12 -10 3 -10 11 0 17 -7 16 -22 0 -13
-3 -17 -6 -10 -2 6 -9 12 -15 12 -6 0 -8 -7 -5 -14 8 -20 -24 -29 -58 -16 -25
9 -26 9 -15 -5 10 -13 9 -15 -9 -15 -23 0 -29 -15 -8 -23 6 -3 2 -6 -10 -6
-16 -1 -21 3 -17 14 8 19 -9 19 -46 0 -25 -13 -29 -13 -34 2 -4 9 -1 20 6 25
10 6 8 8 -5 8 -9 0 -16 6 -15 12 2 7 -7 14 -19 16 -15 2 -23 10 -23 23 0 10 4
19 8 19 5 0 7 14 4 30 -3 23 0 30 13 30 11 0 15 5 11 15 -3 8 -2 15 2 15 4 0
15 12 25 25 14 20 15 24 2 19 -8 -3 -15 -1 -15 5 0 6 5 11 11 11 5 0 7 4 4 10
-3 5 10 18 30 27 20 9 34 22 31 29 -3 7 2 18 10 24 11 10 14 8 15 -11 1 -20 2
-21 6 -4 2 11 6 27 9 35 3 8 5 17 4 19 -1 2 3 7 9 10 6 4 12 20 13 37 2 30 35
77 48 69 5 -3 10 1 13 9 4 10 -1 12 -16 8 -12 -2 -27 -9 -33 -13 -7 -6 -15 4
-23 30 -6 21 -18 42 -27 45 -20 8 -11 21 39 57 37 27 48 30 95 26 33 -3 66
-14 87 -28z m-3331 -1 c18 -26 21 -48 6 -48 -5 0 -10 6 -10 14 0 7 -7 19 -15
26 -8 7 -15 16 -15 21 0 16 19 9 34 -13z m3073 -34 c-7 -7 -37 7 -37 17 0 6 9
5 21 -1 11 -7 19 -14 16 -16z m-2873 -33 c-2 -3 -13 5 -24 16 -10 12 -16 23
-13 27 3 3 14 -5 23 -17 10 -12 16 -24 14 -26z m40 43 c-7 -3 -9 -14 -6 -26 3
-14 1 -19 -6 -14 -19 11 -14 46 6 45 9 0 12 -3 6 -5z m-259 -14 c-3 -5 -14
-10 -23 -9 -14 0 -13 2 3 9 27 11 27 11 20 0z m95 -15 c0 -9 -6 -12 -15 -9 -8
4 -15 10 -15 15 0 5 7 9 15 9 8 0 15 -7 15 -15z m2965 5 c3 -5 2 -10 -4 -10
-5 0 -13 5 -16 10 -3 6 -2 10 4 10 5 0 13 -4 16 -10z m55 -30 c0 -11 -4 -20
-8 -20 -4 0 -8 9 -8 20 0 11 4 20 8 20 4 0 8 -9 8 -20z m-2956 -11 c-3 -6 0
-15 7 -20 11 -7 9 -9 -6 -9 -14 0 -21 6 -21 20 0 11 6 20 14 20 7 0 10 -5 6
-11z m1571 -206 c-4 -10 -9 -27 -12 -38 -4 -16 -3 -17 6 -5 5 8 13 11 17 7 4
-4 2 -13 -4 -19 -7 -7 -12 -20 -12 -30 0 -10 -4 -18 -10 -18 -5 0 -10 9 -10
21 0 11 -4 17 -10 14 -16 -10 -12 24 7 56 19 31 40 40 28 12z m-1259 -61 c-17
-16 -18 -16 -5 5 7 12 15 20 18 17 3 -2 -3 -12 -13 -22z m102 -17 c-3 -3 -9 2
-12 12 -6 14 -5 15 5 6 7 -7 10 -15 7 -18z m-128 -15 c0 -5 -5 -10 -11 -10 -5
0 -7 5 -4 10 3 6 8 10 11 10 2 0 4 -4 4 -10z m-50 -50 c0 -5 -5 -10 -11 -10
-5 0 -7 5 -4 10 3 6 8 10 11 10 2 0 4 -4 4 -10z m57 -6 c-3 -3 -12 -4 -19 -1
-8 3 -5 6 6 6 11 1 17 -2 13 -5z m73 2 c0 -11 -19 -15 -25 -6 -3 5 1 10 9 10
9 0 16 -2 16 -4z m-160 -31 c-7 -9 -15 -13 -17 -11 -7 7 7 26 19 26 6 0 6 -6
-2 -15z m1330 6 c0 -5 -7 -11 -15 -15 -9 -3 -15 0 -15 9 0 8 7 15 15 15 8 0
15 -4 15 -9z m-1200 -22 c0 -6 -4 -7 -10 -4 -5 3 -10 11 -10 16 0 6 5 7 10 4
6 -3 10 -11 10 -16z m130 11 c0 -5 -4 -10 -10 -10 -5 0 -10 5 -10 10 0 6 5 10
10 10 6 0 10 -4 10 -10z m23 -15 c-3 -9 -8 -14 -10 -11 -3 3 -2 9 2 15 9 16
15 13 8 -4z m61 -23 c-6 -4 -13 -15 -17 -24 -3 -10 -11 -18 -16 -18 -12 0 -2
32 13 42 6 4 16 8 21 8 6 0 6 -3 -1 -8z m-84 -42 c0 -5 -4 -10 -10 -10 -5 0
-10 5 -10 10 0 6 5 10 10 10 6 0 10 -4 10 -10z m256 -67 c-11 -11 -19 6 -11
24 8 17 8 17 12 0 3 -10 2 -21 -1 -24z m174 -137 c0 -3 -4 -8 -10 -11 -5 -3
-10 -1 -10 4 0 6 5 11 10 11 6 0 10 -2 10 -4z m373 -16 c10 -12 15 -26 11 -32
-4 -5 0 -14 7 -19 7 -4 10 -12 5 -16 -10 -10 -36 25 -30 41 3 7 -3 19 -12 27
-16 12 -17 12 -11 -3 4 -12 2 -15 -9 -11 -17 6 -18 20 -1 26 20 9 22 8 40 -13z
m-73 -54 c0 -10 -32 -36 -43 -36 -7 1 -1 10 12 20 23 20 31 24 31 16z"/>
<path d="M5096 1768 c3 -5 10 -6 15 -3 13 9 11 12 -6 12 -8 0 -12 -4 -9 -9z"/>
<path d="M3375 630 c-3 -5 -1 -10 4 -10 6 0 11 5 11 10 0 6 -2 10 -4 10 -3 0
-8 -4 -11 -10z"/>
<path d="M5692 3093 c-13 -14 -22 -31 -20 -38 2 -7 15 5 30 26 31 44 25 52
-10 12z"/>
<path d="M3216 3075 c-9 -24 -8 -25 12 -26 12 0 11 -3 -7 -10 -18 -7 -22 -15
-19 -34 3 -13 1 -26 -3 -27 -14 -5 -39 -112 -28 -117 6 -1 3 -8 -5 -15 -8 -6
-16 -20 -18 -31 -3 -17 9 -23 86 -42 49 -12 91 -25 95 -29 3 -4 -6 -4 -21 0
-23 5 -27 2 -33 -24 -4 -16 -4 -34 0 -40 9 -14 52 -13 58 3 3 7 6 5 6 -5 1
-20 74 -45 80 -27 2 6 8 4 15 -5 9 -12 251 -85 331 -99 11 -2 27 -7 35 -10 8
-3 44 -13 79 -22 52 -12 66 -13 73 -3 6 10 8 8 8 -4 0 -11 8 -19 23 -20 35 -2
41 -3 52 -9 6 -4 22 -9 36 -13 24 -5 27 -2 33 25 3 17 3 36 0 41 -4 6 1 8 12
5 66 -20 71 -19 78 8 4 14 4 30 1 35 -4 6 -2 10 3 10 10 0 47 178 39 186 -3 4
1 13 9 22 8 8 12 18 7 22 -9 8 -166 51 -198 54 -11 1 -25 5 -30 8 -13 6 -93
27 -122 31 -12 2 -26 6 -29 10 -4 4 -20 7 -36 7 -15 0 -36 4 -46 9 -9 5 -46
16 -82 24 -36 9 -90 22 -120 30 -173 48 -212 57 -221 52 -5 -4 -9 -2 -9 3 0 5
-26 15 -57 22 -32 7 -63 14 -69 17 -6 2 -14 -3 -18 -12z m68 -49 c-5 -14 -9
-15 -15 -5 -5 8 -3 17 4 21 15 9 19 4 11 -16z m79 -15 c-6 -3 -13 -13 -16 -21
-4 -11 -6 -9 -6 6 -1 24 8 36 21 27 7 -3 7 -8 1 -12z m-68 -47 c13 -3 29 -3
34 1 6 3 11 1 11 -4 0 -6 -10 -11 -22 -10 -29 1 -99 27 -75 28 9 1 18 7 18 14
1 6 3 4 6 -5 2 -10 15 -21 28 -24z m142 30 c-3 -3 -12 -4 -19 -1 -8 3 -5 6 6
6 11 1 17 -2 13 -5z m67 -22 c-9 -2 -21 1 -28 8 -8 8 -7 10 7 5 11 -5 17 -2
17 6 0 11 3 11 10 -1 7 -11 5 -16 -6 -18z m82 -15 c4 -4 -2 -7 -14 -7 -11 0
-23 4 -26 8 -6 10 30 9 40 -1z m74 -12 c0 -8 -7 -15 -15 -15 -13 0 -14 3 -3
15 16 18 18 18 18 0z m-285 -4 c3 -5 1 -12 -4 -15 -5 -3 -11 1 -15 9 -6 16 9
21 19 6z m-62 -52 c21 0 21 -1 2 -8 -25 -10 -44 7 -36 34 5 19 6 19 9 -2 2
-16 11 -23 25 -24z m176 25 c2 -2 -7 -4 -21 -4 -15 0 -28 -6 -30 -12 -3 -7 -7
-3 -10 9 -5 20 -3 22 26 16 17 -3 33 -7 35 -9z m221 6 c0 -5 -7 -7 -15 -4 -8
4 -15 8 -15 10 0 2 7 4 15 4 8 0 15 -4 15 -10z m104 -15 c3 -8 1 -15 -4 -15
-6 0 -10 7 -10 15 0 8 2 15 4 15 2 0 6 -7 10 -15z m-423 -36 c23 -7 23 -7 2
-8 -22 -1 -40 -32 -28 -51 3 -5 -1 -10 -9 -10 -12 0 -13 5 -4 32 8 22 8 33 1
35 -6 2 -8 14 -5 25 5 21 6 21 12 3 4 -11 18 -23 31 -26z m122 21 c-3 -11 -7
-20 -9 -20 -2 0 -4 9 -4 20 0 11 4 20 9 20 5 0 7 -9 4 -20z m77 -12 c0 -4 -11
-2 -25 4 -14 6 -25 15 -25 19 0 4 11 2 25 -4 14 -7 25 -15 25 -19z m190 17 c0
-8 -2 -15 -4 -15 -2 0 -6 7 -10 15 -3 8 -1 15 4 15 6 0 10 -7 10 -15z m-150
-10 c0 -8 -4 -15 -10 -15 -5 0 -7 7 -4 15 4 8 8 15 10 15 2 0 4 -7 4 -15z
m254 -4 c3 -4 -6 -6 -19 -3 -14 2 -25 6 -25 8 0 8 39 4 44 -5z m-416 -31 c38
0 54 -13 46 -35 -7 -17 -8 -17 -15 3 -9 24 -58 32 -60 10 -1 -17 -17 22 -18
42 0 12 2 11 10 -2 5 -10 22 -18 37 -18z m232 15 c0 -8 -4 -15 -10 -15 -5 0
-7 7 -4 15 4 8 8 15 10 15 2 0 4 -7 4 -15z m-40 -5 c0 -5 -2 -10 -4 -10 -3 0
-8 5 -11 10 -3 6 -1 10 4 10 6 0 11 -4 11 -10z m293 3 c-7 -2 -19 -2 -25 0 -7
3 -2 5 12 5 14 0 19 -2 13 -5z m-663 -23 c0 -11 -4 -20 -9 -20 -5 0 -7 9 -4
20 3 11 7 20 9 20 2 0 4 -9 4 -20z m460 6 c0 -2 -7 -6 -15 -10 -8 -3 -15 -1
-15 4 0 6 7 10 15 10 8 0 15 -2 15 -4z m280 0 c0 -2 -9 -6 -20 -9 -11 -3 -20
-1 -20 4 0 5 9 9 20 9 11 0 20 -2 20 -4z m-781 -13 c0 -5 -4 -17 -9 -28 -8
-17 -8 -16 -7 8 1 15 5 27 9 27 4 0 8 -3 7 -7z m861 -3 c0 -5 -12 -10 -27 -9
l-28 1 25 8 c14 4 26 8 28 9 1 1 2 -3 2 -9z m-532 -8 c9 -7 10 -15 2 -33 -10
-24 -10 -24 -6 -1 3 17 -1 26 -17 32 -13 5 -16 9 -7 9 8 0 21 -3 28 -7z m239
2 c-3 -3 -12 -4 -19 -1 -8 3 -5 6 6 6 11 1 17 -2 13 -5z m-487 -8 c0 -11 -19
-15 -25 -6 -3 5 1 10 9 10 9 0 16 -2 16 -4z m330 -16 c13 -9 13 -10 0 -9 -8 0
-24 4 -35 9 l-20 9 20 0 c11 0 27 -4 35 -9z m75 -22 c11 -2 11 -5 -1 -16 -12
-11 -14 -10 -14 3 0 9 -9 15 -22 16 -17 1 -19 2 -5 6 9 2 18 10 18 16 1 7 3 4
6 -5 2 -9 10 -18 18 -20z m163 25 c-15 -2 -29 -12 -31 -21 -3 -12 -5 -10 -6 6
-1 19 4 22 32 21 29 -2 29 -2 5 -6z m92 -8 c0 -8 -4 -15 -10 -15 -5 0 -7 7 -4
15 4 8 8 15 10 15 2 0 4 -7 4 -15z m-580 1 c0 -2 -7 -6 -15 -10 -8 -3 -15 -1
-15 4 0 6 7 10 15 10 8 0 15 -2 15 -4z m52 -16 c15 0 16 -3 7 -13 -11 -11 -16
-10 -31 5 -10 10 -18 21 -18 25 0 4 5 2 12 -5 7 -7 20 -12 30 -12z m92 -20
c14 0 26 -5 26 -11 0 -6 -8 -8 -17 -5 -10 3 -30 8 -45 12 -16 3 -28 10 -28 15
0 6 8 5 19 -1 11 -5 31 -10 45 -10z m252 -7 c-1 -1 -12 0 -25 4 -15 4 -19 8
-10 13 10 7 42 -10 35 -17z m254 17 c0 -5 -5 -10 -11 -10 -5 0 -7 5 -4 10 3 6
8 10 11 10 2 0 4 -4 4 -10z m-666 -43 c6 -5 2 -7 -12 -4 -14 3 -26 -1 -32 -11
-8 -15 -9 -14 -10 6 0 13 6 22 15 22 8 0 16 8 16 18 1 14 2 13 6 -3 3 -11 10
-24 17 -28z m283 -3 c15 -4 28 -2 33 5 5 9 9 7 12 -7 4 -16 0 -19 -23 -18 -16
1 -29 4 -29 8 0 4 -18 11 -40 14 -22 4 -40 10 -40 14 0 4 11 5 25 2 19 -3 25
0 26 14 1 15 3 14 6 -3 3 -14 14 -25 30 -29z m218 7 c-8 -7 -56 10 -50 18 3 5
16 4 29 -2 14 -7 23 -14 21 -16z m62 -11 c9 0 14 -3 10 -6 -3 -3 -14 -3 -25 0
-15 5 -18 12 -14 29 l7 22 3 -22 c2 -13 10 -23 19 -23z m-489 -13 c12 -3 11
-5 -5 -6 -12 0 -24 -9 -26 -18 -4 -14 -5 -13 -6 4 0 12 -7 24 -13 26 -8 3 -6
6 5 6 9 1 18 7 18 14 1 6 3 4 6 -5 2 -9 12 -19 21 -21z m557 -9 c11 -2 11 -5
-1 -16 -12 -11 -14 -10 -14 3 0 8 -4 15 -10 15 -5 0 -6 8 -2 18 6 16 7 16 10
0 2 -9 9 -18 17 -20z m-428 0 c-3 -8 -6 -5 -6 6 -1 11 2 17 5 13 3 -3 4 -12 1
-19z m-59 -8 c8 0 13 -2 10 -5 -3 -4 -18 -3 -33 1 -20 5 -23 9 -13 15 7 5 14
4 16 -1 2 -6 11 -10 20 -10z m237 2 c-11 -2 -23 -9 -27 -16 -5 -6 -8 -3 -8 10
0 18 4 20 28 16 22 -5 24 -7 7 -10z m325 -14 c0 -6 -6 -5 -15 2 -8 7 -15 14
-15 16 0 2 7 1 15 -2 8 -4 15 -11 15 -16z m-430 -8 c0 -13 -6 -20 -17 -19 -11
0 -13 3 -5 6 6 2 12 11 12 19 0 8 2 14 5 14 3 0 5 -9 5 -20z m155 10 c3 -5 1
-10 -4 -10 -6 0 -11 5 -11 10 0 6 2 10 4 10 3 0 8 -4 11 -10z m-215 -10 c18
-12 2 -12 -25 0 -13 6 -15 9 -5 9 8 0 22 -4 30 -9z m257 4 c-3 -3 -12 -4 -19
-1 -8 3 -5 6 6 6 11 1 17 -2 13 -5z m73 -9 c0 -8 -7 -15 -15 -15 -13 0 -14 3
-3 15 16 18 18 18 18 0z m227 0 c9 -24 -1 -27 -15 -5 -8 13 -8 20 -2 20 6 0
13 -7 17 -15z m-267 -5 c0 -5 -2 -10 -4 -10 -3 0 -8 5 -11 10 -3 6 -1 10 4 10
6 0 11 -4 11 -10z m-156 -15 c3 -9 0 -15 -9 -15 -9 0 -12 6 -9 15 4 8 7 15 9
15 2 0 5 -7 9 -15z m236 1 c0 -11 -19 -15 -25 -6 -3 5 1 10 9 10 9 0 16 -2 16
-4z m35 -6 c3 -5 -1 -10 -10 -10 -9 0 -13 5 -10 10 3 6 8 10 10 10 2 0 7 -4
10 -10z m-102 -51 c21 0 21 -1 2 -8 -27 -11 -46 10 -37 40 7 24 7 24 10 -3 2
-21 9 -28 25 -29z m-99 20 c-3 -5 -10 -7 -15 -3 -5 3 -7 10 -3 15 3 5 10 7 15
3 5 -3 7 -10 3 -15z m228 -4 c-2 -14 -6 -25 -8 -25 -2 0 -4 11 -4 25 0 14 4
25 9 25 4 0 6 -11 3 -25z m43 15 c3 -5 1 -10 -4 -10 -6 0 -11 5 -11 10 0 6 2
10 4 10 3 0 8 -4 11 -10z m-228 -16 c-3 -3 -12 -4 -19 -1 -8 3 -5 6 6 6 11 1
17 -2 13 -5z m148 -37 c17 -3 41 -10 55 -15 24 -10 24 -11 3 -11 -13 -1 -23
-7 -23 -15 0 -12 -7 -12 -37 -3 -21 6 -39 11 -39 11 -1 1 -5 17 -9 36 -6 30
-5 33 7 18 7 -9 27 -19 43 -21z m-118 -29 c-3 -8 -6 -5 -6 6 -1 11 2 17 5 13
3 -3 4 -12 1 -19z"/>
<path d="M5985 3051 c-3 -5 -2 -12 3 -15 5 -3 9 1 9 9 0 17 -3 19 -12 6z"/>
<path d="M2856 2999 c-9 -29 -14 -54 -12 -56 2 -2 12 19 21 47 9 28 15 53 13
56 -3 2 -12 -19 -22 -47z"/>
<path d="M5640 3019 c0 -5 5 -7 10 -4 6 3 10 8 10 11 0 2 -4 4 -10 4 -5 0 -10
-5 -10 -11z"/>
<path d="M2816 2915 c-17 -13 -15 -35 3 -35 8 0 23 41 18 46 -1 1 -10 -4 -21
-11z"/>
<path d="M3129 2753 c-12 -32 -2 -44 40 -45 17 -1 31 -4 31 -8 0 -4 12 -10 26
-13 20 -4 27 1 35 21 13 34 6 48 -25 54 -20 4 -27 0 -36 -21 l-10 -26 5 26 c3
19 0 29 -11 33 -30 11 -45 6 -55 -21z"/>
<path d="M3053 2665 l-11 -35 68 -20 c86 -26 86 -26 94 12 8 39 4 42 -59 57
-27 7 -57 14 -66 17 -11 3 -19 -6 -26 -31z m39 -17 c-15 -15 -24 -6 -16 16 5
12 10 14 17 7 8 -8 8 -14 -1 -23z m97 -14 c3 -3 0 -9 -6 -15 -15 -15 -43 -4
-43 16 0 12 6 15 23 9 12 -3 24 -8 26 -10z"/>
<path d="M5521 2674 c0 -11 3 -14 6 -6 3 7 2 16 -1 19 -3 4 -6 -2 -5 -13z"/>
<path d="M4110 2470 c0 -11 6 -20 14 -20 8 0 21 -3 30 -6 21 -8 34 25 15 37
-26 17 -59 11 -59 -11z"/>
<path d="M2258 2093 c-30 -33 -98 -132 -98 -143 0 -5 5 -21 12 -37 6 -15 10
-32 9 -37 -1 -5 4 -4 13 3 11 10 19 7 41 -15 31 -31 44 -25 25 11 -11 21 -11
34 4 87 9 35 29 80 43 100 40 59 0 84 -49 31z m26 -22 c7 -10 -22 -37 -30 -28
-9 8 3 37 15 37 5 0 12 -4 15 -9z"/>
<path d="M2609 1933 c23 -42 40 -56 71 -58 36 -3 59 -27 34 -35 -12 -5 -10
-10 10 -29 40 -38 88 -5 71 49 -5 16 -9 17 -24 8 -14 -9 -28 -5 -70 17 -28 16
-49 30 -46 33 4 4 -40 32 -51 32 -3 0 0 -8 5 -17z"/>
<path d="M432 1741 c42 -37 44 -37 51 -11 6 24 3 26 -48 36 l-39 7 36 -32z"/>
<path d="M4400 1729 c0 -5 5 -7 10 -4 6 3 10 8 10 11 0 2 -4 4 -10 4 -5 0 -10
-5 -10 -11z"/>
<path d="M4656 1665 c-3 -8 -1 -15 4 -15 6 0 10 7 10 15 0 8 -2 15 -4 15 -2 0
-6 -7 -10 -15z"/>
<path d="M200 1240 c0 -5 5 -10 11 -10 5 0 7 5 4 10 -3 6 -8 10 -11 10 -2 0
-4 -4 -4 -10z"/>
<path d="M160 1230 c0 -6 7 -10 15 -10 8 0 15 2 15 4 0 2 -7 6 -15 10 -8 3
-15 1 -15 -4z"/>
<path d="M240 1200 c0 -5 5 -10 10 -10 6 0 10 5 10 10 0 6 -4 10 -10 10 -5 0
-10 -4 -10 -10z"/>
<path d="M298 1173 c7 -3 16 -2 19 1 4 3 -2 6 -13 5 -11 0 -14 -3 -6 -6z"/>
<path d="M430 1160 c0 -5 7 -10 15 -10 8 0 15 5 15 10 0 6 -7 10 -15 10 -8 0
-15 -4 -15 -10z"/>
<path d="M327 1143 c-13 -12 -7 -23 12 -23 10 0 21 7 25 15 5 15 -24 22 -37 8z"/>
<path d="M1910 1049 c0 -5 5 -7 10 -4 6 3 10 8 10 11 0 2 -4 4 -10 4 -5 0 -10
-5 -10 -11z"/>
<path d="M950 1019 c0 -3 35 -38 77 -79 42 -41 63 -59 47 -40 -49 58 -124 130
-124 119z"/>
<path d="M1874 935 c-9 -22 1 -29 15 -11 8 10 9 16 1 21 -5 3 -13 -1 -16 -10z"/>
<path d="M1860 785 c0 -8 5 -15 10 -15 6 0 10 7 10 15 0 8 -4 15 -10 15 -5 0
-10 -7 -10 -15z"/>
<path d="M930 760 c0 -5 5 -10 11 -10 5 0 7 5 4 10 -3 6 -8 10 -11 10 -2 0 -4
-4 -4 -10z"/>
<path d="M1031 634 c0 -11 3 -14 6 -6 3 7 2 16 -1 19 -3 4 -6 -2 -5 -13z"/>
<path d="M1633 613 c9 -9 19 -14 23 -11 10 10 -6 28 -24 28 -15 0 -15 -1 1
-17z"/>
<path d="M1419 546 c29 -31 35 -33 22 -7 -6 10 -18 22 -28 25 -13 5 -11 1 6
-18z"/>
<path d="M1071 547 c-35 -17 -41 -40 -7 -24 14 7 26 15 26 20 0 12 28 8 33 -5
3 -8 6 -6 6 5 1 20 -23 22 -58 4z"/>
<path d="M1680 435 c0 -8 -10 -24 -22 -36 -20 -19 -21 -20 -3 -11 11 6 28 19
38 30 16 17 16 20 2 25 -9 4 -15 1 -15 -8z"/>
</g>
</svg>
